<svg viewBox="0 0 435 100" fill="none" xmlns="http://www.w3.org/2000/svg">
    <path d="M400.33 99.536C395.21 99.536 390.602 98.768 386.506 97.232C382.41 95.6107 378.911 93.3067 376.01 90.32C373.194 87.3333 371.018 83.7067 369.482 79.44C367.946 75.1734 367.178 70.352 367.178 64.976C367.178 59.6 367.946 54.7787 369.482 50.512C371.018 46.2453 373.194 42.6187 376.01 39.632C378.911 36.6453 382.41 34.384 386.506 32.848C390.602 31.2267 395.21 30.416 400.33 30.416C405.45 30.416 410.058 31.2267 414.154 32.848C418.25 34.384 421.706 36.6453 424.522 39.632C427.423 42.6187 429.642 46.2453 431.178 50.512C432.714 54.7787 433.482 59.6 433.482 64.976C433.482 70.352 432.714 75.1734 431.178 79.44C429.642 83.7067 427.423 87.3333 424.522 90.32C421.706 93.3067 418.25 95.6107 414.154 97.232C410.058 98.768 405.45 99.536 400.33 99.536ZM400.33 85.456C404.597 85.456 407.925 84.1333 410.314 81.488C412.703 78.8427 413.898 75.088 413.898 70.224V59.728C413.898 54.864 412.703 51.1093 410.314 48.464C407.925 45.8187 404.597 44.496 400.33 44.496C396.063 44.496 392.735 45.8187 390.346 48.464C387.957 51.1093 386.762 54.864 386.762 59.728V70.224C386.762 75.088 387.957 78.8427 390.346 81.488C392.735 84.1333 396.063 85.456 400.33 85.456Z" fill="#FFFFFF"/>
    <path d="M289.02 98V31.952H304.252V41.68H305.148C306.172 38.608 307.623 35.9627 309.5 33.744C311.463 31.5253 314.193 30.416 317.692 30.416C324.092 30.416 328.017 34.1707 329.468 41.68H330.236C330.748 40.144 331.388 38.6933 332.156 37.328C332.924 35.9627 333.863 34.768 334.972 33.744C336.081 32.72 337.404 31.9093 338.94 31.312C340.476 30.7147 342.268 30.416 344.316 30.416C353.532 30.416 358.14 37.2 358.14 50.768V98H342.908V52.688C342.908 49.616 342.353 47.4827 341.244 46.288C340.22 45.008 338.855 44.368 337.148 44.368C335.527 44.368 334.119 44.9227 332.924 46.032C331.815 47.056 331.26 48.6773 331.26 50.896V98H315.9V52.688C315.9 49.616 315.388 47.4827 314.364 46.288C313.425 45.008 312.103 44.368 310.396 44.368C308.689 44.368 307.239 44.9227 306.044 46.032C304.849 47.056 304.252 48.6773 304.252 50.896V98H289.02Z" fill="#FFFFFF"/>
    <path d="M246.83 99.536C241.71 99.536 237.102 98.768 233.006 97.232C228.91 95.6107 225.411 93.3067 222.51 90.32C219.694 87.3333 217.518 83.7067 215.982 79.44C214.446 75.1734 213.678 70.352 213.678 64.976C213.678 59.6 214.446 54.7787 215.982 50.512C217.518 46.2453 219.694 42.6187 222.51 39.632C225.411 36.6453 228.91 34.384 233.006 32.848C237.102 31.2267 241.71 30.416 246.83 30.416C251.95 30.416 256.558 31.2267 260.654 32.848C264.75 34.384 268.206 36.6453 271.022 39.632C273.923 42.6187 276.142 46.2453 277.678 50.512C279.214 54.7787 279.982 59.6 279.982 64.976C279.982 70.352 279.214 75.1734 277.678 79.44C276.142 83.7067 273.923 87.3333 271.022 90.32C268.206 93.3067 264.75 95.6107 260.654 97.232C256.558 98.768 251.95 99.536 246.83 99.536ZM246.83 85.456C251.097 85.456 254.425 84.1333 256.814 81.488C259.203 78.8427 260.398 75.088 260.398 70.224V59.728C260.398 54.864 259.203 51.1093 256.814 48.464C254.425 45.8187 251.097 44.496 246.83 44.496C242.563 44.496 239.235 45.8187 236.846 48.464C234.457 51.1093 233.262 54.864 233.262 59.728V70.224C233.262 75.088 234.457 78.8427 236.846 81.488C239.235 84.1333 242.563 85.456 246.83 85.456Z" fill="#FFFFFF"/>
    <path d="M140 3.28003H158.944V43.984H159.712C160.48 42.1067 161.419 40.3574 162.528 38.736C163.637 37.1147 164.96 35.7067 166.496 34.512C168.117 33.232 169.952 32.2507 172 31.568C174.133 30.8 176.523 30.416 179.168 30.416C182.325 30.416 185.227 30.9707 187.872 32.08C190.517 33.104 192.779 34.6827 194.656 36.816C196.533 38.9494 197.984 41.552 199.008 44.624C200.117 47.696 200.672 51.2374 200.672 55.248V98H181.728V57.808C181.728 49.2747 178.016 45.008 170.592 45.008C169.141 45.008 167.691 45.2214 166.24 45.648C164.875 45.9894 163.637 46.5867 162.528 47.44C161.419 48.208 160.523 49.1894 159.84 50.384C159.243 51.5787 158.944 52.9867 158.944 54.608V98H140V3.28003Z" fill="#FFFFFF"/>
    <path fill-rule="evenodd" clip-rule="evenodd" d="M40 0H0V40H10V50H0V100H20V90H30V60V50V30H20V20H30H40V0ZM50 0V20H60H70V30H60V50V60V90H70V100H100V0H50ZM50 100V90V60H40V90V100H50ZM80 40H70V30H80V40ZM80 40H90V50H80V40ZM20 30V40H10V30H20Z" fill="#FFFFFF"/>
</svg>